<?xml version="1.0" encoding="UTF-8" standalone="no"?>
<!-- Created with Inkscape (http://www.inkscape.org/) -->

<svg
   width="210mm"
   height="297mm"
   viewBox="0 0 210 297"
   version="1.1"
   id="svg5"
   inkscape:version="1.2.2 (b0a8486541, 2022-12-01)"
   sodipodi:docname="favicon.svg"
   xmlns:inkscape="http://www.inkscape.org/namespaces/inkscape"
   xmlns:sodipodi="http://sodipodi.sourceforge.net/DTD/sodipodi-0.dtd"
   xmlns="http://www.w3.org/2000/svg"
   xmlns:svg="http://www.w3.org/2000/svg">
  <sodipodi:namedview
     id="namedview7"
     pagecolor="#505050"
     bordercolor="#ffffff"
     borderopacity="1"
     inkscape:showpageshadow="0"
     inkscape:pageopacity="0"
     inkscape:pagecheckerboard="1"
     inkscape:deskcolor="#505050"
     inkscape:document-units="mm"
     showgrid="false"
     inkscape:zoom="0.32441301"
     inkscape:cx="18.494942"
     inkscape:cy="730.55023"
     inkscape:window-width="1366"
     inkscape:window-height="695"
     inkscape:window-x="0"
     inkscape:window-y="0"
     inkscape:window-maximized="1"
     inkscape:current-layer="layer1" />
  <defs
     id="defs2" />
  <g
     inkscape:label="Layer 1"
     inkscape:groupmode="layer"
     id="layer1">
    <ellipse
       id="path108"
       style="fill:#808000;stroke:#000000;stroke-width:3.59024"
       cx="-23.709225"
       cy="26.373854"
       rx="0.32213956"
       ry="0.21079445" />
    <path
       style="fill:none;stroke:#000000;stroke-width:3.59024px;stroke-linecap:butt;stroke-linejoin:miter;stroke-opacity:1"
       d="M 124.55389,4.4877578 24.722517,76.120991 30.517994,220.64175 123.35769,276.44771 183.45744,224.61033 182.92904,74.146174 Z"
       id="path168" />
    <path
       style="fill:none;stroke:#000000;stroke-width:2.86047px;stroke-linecap:butt;stroke-linejoin:miter;stroke-opacity:1"
       d="m 122.8313,25.365465 -73.105481,62.095642 4.243654,125.278563 67.985517,48.37568 44.0105,-44.9355 -0.38581,-130.430625 z"
       id="path168-3" />
    <path
       style="fill:#000000;stroke-width:0.691682"
       d="M 79.890629,247.96024 C 56.201449,233.7394 35.981994,221.57125 34.958479,220.91989 33.098078,219.73595 33.096747,219.71617 30.475356,153.15311 29.033132,116.53275 27.772789,84.366517 27.674525,81.672638 L 27.495662,76.774649 75.76226,42.131253 c 26.54664,-19.053855 48.30907,-34.6004427 48.361,-34.5479344 0.0519,0.052567 12.6578,15.1008754 28.01315,33.4408414 l 27.91878,33.345378 0.56149,74.660122 0.56153,74.66008 -28.48351,24.59998 c -15.66594,13.53001 -28.76468,24.80848 -29.1083,25.06327 -0.34352,0.25471 -20.00686,-11.17192 -43.695993,-25.39275 z m 65.628451,-8.1117 22.49395,-22.9105 0.031,-65.57164 0.031,-65.571639 -22.01786,-31.105578 C 133.94747,37.581104 123.65466,23.543295 123.18438,23.494068 122.7141,23.444696 105.48899,37.700875 84.906346,55.17416 l -37.422953,31.769602 2.188301,63.243398 2.188257,63.24341 22.91856,16.30117 c 12.605204,8.96565 28.268439,20.13086 34.807159,24.81158 6.53872,4.68072 12.23837,8.44411 12.66587,8.36308 0.42741,-0.081 10.89952,-10.45706 23.27118,-23.05786 z"
       id="path448" />
    <path
       style="fill:none;stroke:#000000;stroke-width:3.59024px;stroke-linecap:butt;stroke-linejoin:miter;stroke-opacity:1"
       d="m 52.477031,129.92341 113.904309,-0.89251 -0.067,45.75202 -113.188199,1.39264 z"
       id="path519" />
    <path
       style="fill:#ffffff;stroke:#000000;stroke-width:3.59024px;stroke-linecap:butt;stroke-linejoin:miter;stroke-opacity:1"
       d="m 66.297674,179.23495 -0.01338,30.89115 79.998186,-0.12194 -2.29443,-36.01556 z"
       id="path521" />
    <path
       style="fill:#ffffff;stroke-width:0.691682"
       d="m 55.749364,169.09935 c -0.29559,-2.92348 -0.539253,-12.51346 -0.541695,-21.31111 l -0.0044,-15.99567 27.575797,-0.36924 c 15.166676,-0.20302 39.600074,-0.36968 54.296464,-0.37018 l 26.72071,-9.5e-4 v 20.94474 20.94471 l -8.55246,0.17717 c -6.64288,0.13736 -8.5521,0.0116 -8.55064,-0.56008 8.4e-4,-0.4356 -0.61013,-0.62281 -1.49451,-0.4577 -4.46812,0.83423 -26.65636,1.60313 -55.892473,1.93689 l -33.019544,0.37697 z"
       id="path592" />
    <path
       style="fill:#ff0000;stroke-width:0.691682"
       d="m 53.178259,121.40556 c -0.268517,-3.77251 -0.683898,-12.81194 -0.923344,-20.08765 L 51.819519,88.089393 86.959369,58.235135 C 106.28633,41.815303 122.16122,28.331706 122.23694,28.27159 c 0.0759,-0.06011 9.45756,13.069857 20.84849,29.177686 l 20.71077,29.286978 v 20.143316 20.14332 l -10.4745,0.31906 c -5.761,0.17542 -30.54023,0.45486 -55.065004,0.62086 l -44.59049,0.30185 z"
       id="path594" />
    <path
       style="fill:#ff0000;stroke-width:0.691682"
       d="M 90.688336,236.73306 C 73.758102,224.70047 59.068055,214.17469 58.043784,213.34243 c -1.78619,-1.45136 -1.887518,-2.2013 -2.477633,-18.34244 l -0.615326,-16.82924 4.402036,-0.19952 4.402079,-0.19952 -5.34e-4,16.92537 -5.32e-4,16.9254 h 42.711536 42.7115 l -0.41055,-4.61601 c -0.70364,-7.91314 -2.04916,-29.71619 -1.84153,-29.84082 0.10873,-0.0651 3.94915,-0.3002 8.53444,-0.52218 l 8.33684,-0.40363 v 19.72953 19.72952 l -21.03285,21.46149 c -11.56807,11.80382 -21.09132,21.45892 -21.16282,21.45572 -0.0715,-0.003 -13.98191,-9.8506 -30.912192,-21.88319 z"
       id="path596" />
    <path
       sodipodi:type="spiral"
       style="fill:#000000;fill-rule:evenodd;stroke:#000000;stroke-width:0.264583"
       id="path651"
       sodipodi:cx="110.31106"
       sodipodi:cy="73.660919"
       sodipodi:expansion="1"
       sodipodi:revolution="2.6426718"
       sodipodi:radius="3.6236737"
       sodipodi:argument="-15.847117"
       sodipodi:t0="0"
       d="m 110.31106,73.660919 c -0.20426,0.02861 -0.13934,-0.261221 -0.0476,-0.33949 0.24874,-0.212104 0.60596,-0.0069 0.72653,0.244393 0.21566,0.449521 -0.10103,0.955528 -0.53634,1.113568 -0.63882,0.23193 -1.31103,-0.208838 -1.5006,-0.828276 -0.25267,-0.825612 0.31639,-1.668814 1.12021,-1.887646 1.01154,-0.275378 2.02772,0.423771 2.27469,1.412158 0.29912,1.19707 -0.53104,2.387247 -1.7041,2.661725 -1.38241,0.323463 -2.74718,-0.638247 -3.04876,-1.996041 -0.34819,-1.567628 0.7454,-3.107383 2.28798,-3.435804 1.75277,-0.373173 3.46777,0.852532 3.82284,2.579925 0.2147,1.044464 -0.0787,2.149278 -0.76155,2.964759"
       transform="matrix(1.1570869,0,0,0.93024832,-44.166318,70.373333)" />
    <text
       xml:space="preserve"
       style="font-style:normal;font-weight:normal;font-size:47.5454px;line-height:1.25;font-family:sans-serif;fill:#000000;fill-opacity:1;stroke:none;stroke-width:1.18864"
       x="44.506493"
       y="207.79279"
       id="text709"
       transform="scale(1.2638212,0.79125118)"><tspan
         sodipodi:role="line"
         id="tspan707"
         style="stroke-width:1.18864"
         x="44.506493"
         y="207.79279">fiz</tspan></text>
    <text
       xml:space="preserve"
       style="font-style:normal;font-weight:normal;font-size:57.7445px;line-height:1.25;font-family:sans-serif;fill:#000000;fill-opacity:1;stroke:none;stroke-width:1.44361"
       x="74.113503"
       y="243.52966"
       id="text763"
       transform="scale(1.1811999,0.84659675)"><tspan
         sodipodi:role="line"
         id="tspan761"
         style="stroke-width:1.44361"
         x="74.113503"
         y="243.52966">x</tspan></text>
    <path
       sodipodi:type="star"
       style="fill:#000000;stroke-width:0.264583"
       id="path817"
       inkscape:flatsided="false"
       sodipodi:sides="5"
       sodipodi:cx="113.51343"
       sodipodi:cy="74.261864"
       sodipodi:r1="0.20690618"
       sodipodi:r2="0.10345308"
       sodipodi:arg1="0.16785738"
       sodipodi:arg2="0.79617591"
       inkscape:rounded="0"
       inkscape:randomized="0"
       d="m 113.71743,74.296432 -0.13164,0.03937 -0.0422,0.13076 -0.0781,-0.11303 -0.1374,2.75e-4 0.0834,-0.109225 -0.0427,-0.130589 0.12964,0.04552 0.11099,-0.08098 -0.003,0.137361 z"
       inkscape:transform-center-x="-0.15639176"
       inkscape:transform-center-y="0.11722379"
       transform="matrix(16.774661,0,0,10.976626,-1772.4933,-675.21146)" />
    <path
       sodipodi:type="star"
       style="fill:#000000;stroke-width:0.264583"
       id="path819"
       inkscape:flatsided="false"
       sodipodi:sides="5"
       sodipodi:cx="114.21747"
       sodipodi:cy="73.744385"
       sodipodi:r1="0.24231786"
       sodipodi:r2="0.12115891"
       sodipodi:arg1="1.563311"
       sodipodi:arg2="2.1916295"
       inkscape:rounded="0"
       inkscape:randomized="0"
       d="m 114.21928,73.986696 -0.0723,-0.143761 -0.15941,-0.02195 0.11438,-0.11318 -0.0284,-0.158391 0.14299,0.07381 0.14187,-0.07594 -0.026,0.158798 0.11607,0.111455 -0.15906,0.02433 z"
       inkscape:transform-center-x="-0.0094400358"
       inkscape:transform-center-y="0.24810403"
       transform="matrix(16.774661,0,0,10.976626,-1772.4933,-675.21146)" />
    <path
       sodipodi:type="star"
       style="fill:#000000;stroke-width:0.264583"
       id="path821"
       inkscape:flatsided="false"
       sodipodi:sides="5"
       sodipodi:cx="113.41073"
       sodipodi:cy="73.815712"
       sodipodi:r1="0.28621501"
       sodipodi:r2="0.14310747"
       sodipodi:arg1="0.74562937"
       sodipodi:arg2="1.3739479"
       inkscape:rounded="0"
       inkscape:randomized="0"
       d="m 113.621,74.00989 -0.18228,-0.05383 -0.14769,0.11964 -0.005,-0.189996 -0.15942,-0.103487 0.17911,-0.06359 0.0492,-0.183599 0.11583,0.150696 0.1898,-0.01 -0.10753,0.156725 z"
       inkscape:transform-center-x="0.290132"
       inkscape:transform-center-y="-0.11365697"
       transform="matrix(16.774661,0,0,10.976626,-1772.4933,-675.21146)" />
    <path
       sodipodi:type="star"
       style="fill:#000000;stroke-width:0.264583"
       id="path823"
       inkscape:flatsided="false"
       sodipodi:sides="5"
       sodipodi:cx="113.93205"
       sodipodi:cy="74.12429"
       sodipodi:r1="0.11238457"
       sodipodi:r2="0.056192271"
       sodipodi:arg1="1.5519983"
       sodipodi:arg2="2.1803168"
       inkscape:rounded="0"
       inkscape:randomized="0"
       d="m 113.93417,74.236655 -0.0343,-0.06629 -0.074,-0.0093 0.0525,-0.05309 -0.014,-0.07331 0.0667,0.03348 0.0654,-0.03596 -0.0112,0.07378 0.0544,0.05108 -0.0736,0.01212 z"
       inkscape:transform-center-x="-0.010988198"
       inkscape:transform-center-y="0.11093394"
       transform="matrix(16.774661,0,0,10.976626,-1772.4933,-675.21146)" />
    <path
       sodipodi:type="spiral"
       style="opacity:0.87;fill:none;fill-rule:evenodd;stroke:#000000;stroke-width:0.264583"
       id="path825"
       sodipodi:cx="114.23927"
       sodipodi:cy="74.383408"
       sodipodi:expansion="1"
       sodipodi:revolution="2.6426718"
       sodipodi:radius="1.9879624"
       sodipodi:argument="-15.581315"
       sodipodi:t0="0"
       d="m 114.23927,74.383408 c -0.11224,-0.01429 -0.0361,-0.158355 0.0238,-0.186558 0.16223,-0.07643 0.32175,0.08367 0.34936,0.234066 0.0494,0.269028 -0.19118,0.491239 -0.44438,0.512164 -0.37158,0.03071 -0.66389,-0.299479 -0.67497,-0.65469 -0.0148,-0.47344 0.40797,-0.837772 0.865,-0.83777 0.57513,4e-6 1.01228,0.516531 1.00058,1.075313 -0.0142,0.676761 -0.62513,1.187133 -1.28563,1.163377 -0.77837,-0.028 -1.36221,-0.733744 -1.32618,-1.495937 0.0416,-0.879982 0.84238,-1.537436 1.70625,-1.488982 0.98159,0.05506 1.71277,0.951015 1.65179,1.91656 -0.0369,0.583814 -0.35138,1.126356 -0.83037,1.459614"
       transform="matrix(4.3658619,0,0,2.6882068,-346.68146,-57.586248)" />
  </g>
</svg>
